<svg width="1200" height="700" viewBox="0 0 1200 700" fill="none" xmlns="http://www.w3.org/2000/svg">
  <defs>
    <linearGradient id="bg2" x1="0" y1="0" x2="1200" y2="700" gradientUnits="userSpaceOnUse">
      <stop stop-color="#111827"/>
      <stop offset="0.55" stop-color="#1E293B"/>
      <stop offset="1" stop-color="#7E22CE"/>
    </linearGradient>
  </defs>

  <rect width="1200" height="700" fill="url(#bg2)"/>
  <path d="M0 470C220 420 320 520 520 480C700 440 830 330 1200 380V700H0V470Z" fill="#A78BFA" fill-opacity="0.27"/>
  <path d="M0 530C200 500 380 610 620 565C840 525 980 455 1200 500V700H0V530Z" fill="#EC4899" fill-opacity="0.25"/>

  <rect x="120" y="100" width="960" height="500" rx="28" fill="#0B1120" fill-opacity="0.62" stroke="#A78BFA" stroke-opacity="0.45"/>
  <rect x="180" y="170" width="360" height="18" rx="9" fill="#A78BFA" fill-opacity="0.7"/>
  <rect x="180" y="215" width="560" height="10" rx="5" fill="#E2E8F0" fill-opacity="0.55"/>

  <rect x="180" y="280" width="300" height="220" rx="18" fill="#0F172A" stroke="#EC4899" stroke-opacity="0.45"/>
  <rect x="520" y="280" width="500" height="36" rx="9" fill="#0F172A" stroke="#EC4899" stroke-opacity="0.45"/>
  <rect x="520" y="338" width="500" height="36" rx="9" fill="#0F172A" stroke="#EC4899" stroke-opacity="0.45"/>
  <rect x="520" y="396" width="500" height="36" rx="9" fill="#0F172A" stroke="#EC4899" stroke-opacity="0.45"/>

  <text x="180" y="560" fill="#F8FAFC" font-family="Segoe UI, Arial, sans-serif" font-size="34" font-weight="700">Vientos Patagónicos</text>
</svg>
